<svg width="183" height="60" viewBox="0 0 183 60" fill="none" xmlns="http://www.w3.org/2000/svg">
<path d="M67.5 54.3309L56.7586 43.5895C58.8879 39.3852 60.0136 34.7468 60.0136 30.0136C60.0136 22.0524 56.8806 14.5253 51.1844 8.84268C45.4882 3.13291 37.9747 0 30 0C22.0253 0 14.5118 3.13291 8.82911 8.82911C3.13291 14.5118 0 22.0389 0 30C0 37.9611 3.13291 45.4882 8.82911 51.1709C14.5253 56.8671 22.0389 60 30 60C35.5199 60 40.9042 58.481 45.6103 55.6194L48.7703 58.7794C49.3807 59.3897 50.1944 59.7016 50.9946 59.7016C51.7948 59.7016 52.6085 59.3897 53.2188 58.7794C54.453 57.5452 54.453 55.5651 53.2188 54.3309L29.2541 30.3526C28.0199 29.1184 26.0398 29.1184 24.8056 30.3526C23.5714 31.5868 23.5714 33.5669 24.8056 34.8011L41.0127 51.0081C37.6221 52.7848 33.8517 53.7206 30.0136 53.7206C23.7342 53.7206 17.7939 51.2387 13.2911 46.736C8.78843 42.2333 6.30651 36.2929 6.30651 30.0136C6.30651 23.7342 8.78843 17.7939 13.2911 13.2911C17.7939 8.78843 23.7342 6.30651 30.0136 6.30651C36.2929 6.30651 42.2333 8.78843 46.736 13.2911C51.2387 17.7939 53.7206 23.7342 53.7206 30.0136C53.7206 33.0515 53.1374 36.0488 52.0118 38.8427L43.5081 30.3391C42.274 29.1049 40.2939 29.1049 39.0597 30.3391C37.8255 31.5732 37.8255 33.5533 39.0597 34.7875L50.3843 46.1121C50.5335 46.2884 50.6962 46.4512 50.8725 46.6004L63.0515 58.7794C63.6618 59.3897 64.4756 59.7016 65.2758 59.7016C66.076 59.7016 66.8897 59.3897 67.5 58.7794C68.7342 57.5588 68.7342 55.5651 67.5 54.3309Z" fill="url(#paint0_linear_3344_115050)"/>
<path d="M98.8774 28.3007V26.4698H88.0546V20.5295H102.499V15.7284H85.3286C83.7418 15.7284 82.4805 17.1118 82.4805 18.6986V43.3957H88.0546V31.1488H95.9072C97.494 31.1488 98.8774 29.8875 98.8774 28.3007Z" fill="#3877FF"/>
<path d="M104.93 15.7284V19.9599H110.341V18.3731C110.382 16.6235 109.528 15.7284 107.737 15.7284H104.93ZM104.93 21.8722V43.3957H110.341V24.4761C110.341 22.7266 109.487 21.8722 107.737 21.8722H104.93Z" fill="#3877FF"/>
<path d="M131.743 43.3957V30.742C131.784 24.5982 128.773 21.5467 122.629 21.5467C116.485 21.5467 113.393 24.5982 113.393 30.742V43.3957H118.886V29.6434C118.927 27.4056 120.147 26.3071 122.548 26.3071C124.948 26.3071 126.169 27.4056 126.291 29.6434V40.7103C126.291 42.4192 127.186 43.2736 128.976 43.3957H131.743Z" fill="#3877FF"/>
<path d="M144.101 26.3884C147.031 26.3884 148.536 28.4228 148.658 32.5729C148.658 36.9264 147.112 39.1235 144.02 39.1235C140.928 39.1235 139.463 36.9264 139.504 32.5729C139.667 28.4228 141.172 26.3884 144.101 26.3884ZM151.344 15.7284H148.658V24.883C147.275 22.6452 145.2 21.5467 142.515 21.5467C136.778 21.7501 133.93 25.4933 133.93 32.817C133.93 39.9779 137.266 43.5991 143.939 43.7212C150.652 43.7618 154.029 40.5476 154.029 34.0783V18.4544C154.029 16.9897 152.809 15.7284 151.344 15.7284Z" fill="#3877FF"/>
<path d="M156.464 15.7284V19.9599H161.876V18.3731C161.916 16.6235 161.062 15.7284 159.272 15.7284H156.464ZM156.464 21.8722V43.3957H161.876V24.4761C161.876 22.7266 161.021 21.8722 159.272 21.8722H156.464Z" fill="#3877FF"/>
<path d="M172.495 39.4083C170.787 39.4083 169.891 38.5946 169.769 36.8857C169.769 35.2989 170.868 34.2817 173.024 33.8749C174.611 33.5494 176.076 33.1018 177.337 32.5729V34.5665C177.337 37.6181 175.506 39.4083 172.495 39.4083ZM173.757 25.9816C175.995 25.9816 177.134 26.5919 177.256 27.8125C177.256 28.9924 176.076 29.6841 173.757 29.9689C168.305 30.4978 164.561 31.8812 164.439 37.0485C164.439 41.8089 168.02 44.2094 173.187 43.8025C179.005 43.3957 182.586 40.751 182.586 34.8107V27.487C182.464 23.4996 179.453 21.5467 173.513 21.5467C168.549 21.5467 165.741 23.4996 165.09 27.487H170.502C170.787 26.4698 171.844 25.9816 173.757 25.9816Z" fill="#3877FF"/>
<defs>
<linearGradient id="paint0_linear_3344_115050" x1="0" y1="30.0025" x2="68.4238" y2="30.0025" gradientUnits="userSpaceOnUse">
<stop stop-color="#3877FF"/>
<stop offset="1" stop-color="#91D7FF"/>
</linearGradient>
</defs>
</svg>
